<svg width="32" height="32" xmlns="http://www.w3.org/2000/svg" fill="none">

 <g>
  <title>Layer 1</title>
  <g stroke="null">
   <path stroke="null" d="m16,31.97895c8.82494,0 15.97895,-7.15401 15.97895,-15.97895c0,-8.82494 -7.15401,-15.97895 -15.97895,-15.97895c-8.82494,0 -15.97895,7.15401 -15.97895,15.97895c0,8.82494 7.15401,15.97895 15.97895,15.97895z" fill="#24A980"/>
   <path stroke="null" d="m17.98345,17.59277c-0.10276,0 -0.69362,0.05137 -1.95239,0.05137c-1.02761,0 -1.72123,-0.0257 -1.97813,-0.05137c-3.87912,-0.15416 -6.80773,-0.84778 -6.80773,-1.64413c0,-0.82208 2.90291,-1.49 6.80773,-1.66983l0,2.64601c0.25689,0.0257 0.97621,0.0514 2.00379,0.0514c1.20741,0 1.82396,-0.0514 1.92673,-0.0514l0,-2.64601c3.90482,0.17983 6.80776,0.84775 6.80776,1.66983c0,0.79635 -2.90294,1.48997 -6.80776,1.64413zm0,-3.59656l0,-2.36345l5.44619,0l0,-3.62223l-14.79721,0l0,3.62223l5.44619,0l0,2.36345c-4.41861,0.20553 -7.73258,1.07898 -7.73258,2.13226c0,1.05325 3.31397,1.9267 7.73258,2.13222l0,7.60412l3.93052,0l0,-7.60412c4.41861,-0.20553 7.73258,-1.07898 7.73258,-2.13222c-0.0257,-1.05328 -3.33967,-1.92673 -7.75828,-2.13226z" fill="#FFFDFA"/>
  </g>
 </g>
</svg>